<svg width="44" height="38" viewBox="0 0 44 38" fill="none" xmlns="http://www.w3.org/2000/svg">
<g clip-path="url(#clip0_731_463)">
<path d="M13.3784 14.6446L21.6611 0.0992964C21.7355 -0.0321106 21.9236 -0.0335707 22.0008 0.0949162L25.9024 6.52656C25.9578 6.61709 25.9315 6.73535 25.8426 6.79376L13.6598 14.9074C13.4863 15.0228 13.2763 14.8256 13.3798 14.6446H13.3784Z" fill="#FFA116"/>
<path d="M14.9909 16.3704L26.5322 8.22608C26.6255 8.16037 26.7567 8.18811 26.815 8.28594L30.3433 14.2139C30.4148 14.335 30.3419 14.4898 30.2019 14.5103L15.1323 16.7267C14.9267 16.7573 14.8203 16.4901 14.9894 16.3704H14.9909Z" fill="#FFA116"/>
<path d="M15.1936 18.5824L31.2633 16.2229C31.3421 16.2112 31.4208 16.2477 31.4616 16.3164L36.7176 25.0885C36.8109 25.2433 36.6637 25.4316 36.4916 25.3791L15.1659 18.9664C14.9632 18.9051 14.9851 18.6131 15.1936 18.5824Z" fill="#20A1E4"/>
<path d="M14.5083 21.1901L32.1702 37.946C32.2066 37.981 32.2547 38 32.3058 38H43.573C43.7246 38 43.8194 37.8365 43.745 37.7051L38.3272 28.1635L14.6862 20.885C14.5025 20.828 14.3683 21.0587 14.5083 21.1901Z" fill="#20A1E4"/>
<path d="M12.9774 23.005L18.8239 37.8759C18.8531 37.9518 18.926 38.0015 19.0076 38.0015H29.2047C29.384 38.0015 29.47 37.781 29.3388 37.6583L13.2953 22.7874C13.1407 22.6444 12.9016 22.8093 12.9774 23.005Z" fill="#20A1E4"/>
<path d="M10.719 23.5876L9.64451 37.7883C9.63576 37.9036 9.72615 38 9.84133 38H16.513C16.6515 38 16.7478 37.8598 16.6967 37.7299L11.0996 23.5292C11.0223 23.3335 10.7351 23.3773 10.719 23.5861V23.5876Z" fill="#20A1E4"/>
<path d="M8.39067 23.4445L0.0277318 37.7036C-0.0495407 37.835 0.0452275 38.0015 0.198315 38.0015H7.66168C7.7652 38.0015 7.85122 37.9212 7.85851 37.816L8.75808 23.5569C8.7712 23.3496 8.49564 23.2649 8.39067 23.4445Z" fill="#20A1E4"/>
</g>
<defs>
<clipPath id="clip0_731_463">
<rect width="44" height="38" fill="white"/>
</clipPath>
</defs>
</svg>
